<svg width="1280" height="720" viewBox="0 0 1280 720" fill="none" xmlns="http://www.w3.org/2000/svg">
  <defs>
    <linearGradient id="bg" x1="0" y1="0" x2="1280" y2="720" gradientUnits="userSpaceOnUse">
      <stop offset="0" stop-color="#F8F5F1"/>
      <stop offset="1" stop-color="#EDE6DE"/>
    </linearGradient>
    <linearGradient id="panel" x1="0" y1="0" x2="960" y2="540" gradientUnits="userSpaceOnUse">
      <stop offset="0" stop-color="#FFFFFF" stop-opacity="0.95"/>
      <stop offset="1" stop-color="#F1E9E1" stop-opacity="0.96"/>
    </linearGradient>
    <linearGradient id="card" x1="0" y1="0" x2="420" y2="240" gradientUnits="userSpaceOnUse">
      <stop offset="0" stop-color="#FFFEFC"/>
      <stop offset="1" stop-color="#EEE5DC"/>
    </linearGradient>
  </defs>

  <rect width="1280" height="720" fill="url(#bg)"/>
  <rect x="0" y="0" width="1280" height="78" fill="#F1EBE3"/>
  <rect x="34" y="24" width="220" height="30" rx="9" fill="#443A33"/>
  <text x="56" y="44" fill="#F7F2EC" font-size="17" font-family="Arial, sans-serif" font-weight="700">BlogCentral API Suite</text>

  <rect x="34" y="108" width="1212" height="578" rx="24" fill="url(#panel)" stroke="#D1C5B9"/>

  <rect x="72" y="146" width="760" height="250" rx="18" fill="url(#card)" stroke="#D7CABD"/>
  <rect x="94" y="172" width="260" height="16" rx="8" fill="#C4B4A5"/>
  <rect x="94" y="202" width="692" height="13" rx="6" fill="#D8CCC0"/>
  <rect x="94" y="226" width="664" height="13" rx="6" fill="#D8CCC0"/>
  <rect x="94" y="250" width="620" height="13" rx="6" fill="#D8CCC0"/>

  <rect x="94" y="286" width="330" height="82" rx="12" fill="#ECE2D8"/>
  <rect x="444" y="286" width="342" height="82" rx="12" fill="#ECE2D8"/>

  <rect x="856" y="146" width="348" height="540" rx="18" fill="url(#card)" stroke="#D7CABD"/>
  <rect x="878" y="170" width="170" height="14" rx="7" fill="#C4B4A5"/>
  <rect x="878" y="198" width="282" height="42" rx="12" fill="#E8DDD2"/>
  <rect x="878" y="252" width="282" height="42" rx="12" fill="#E8DDD2"/>
  <rect x="878" y="306" width="282" height="42" rx="12" fill="#E8DDD2"/>
  <rect x="878" y="360" width="282" height="42" rx="12" fill="#E8DDD2"/>

  <rect x="878" y="430" width="282" height="96" rx="14" fill="#E4D8CB"/>
  <rect x="896" y="448" width="170" height="12" rx="6" fill="#C4B4A5"/>
  <rect x="896" y="470" width="246" height="10" rx="5" fill="#D2C3B5"/>
  <rect x="896" y="488" width="220" height="10" rx="5" fill="#D2C3B5"/>

  <rect x="72" y="422" width="760" height="224" rx="18" fill="url(#card)" stroke="#D7CABD"/>
  <rect x="94" y="448" width="280" height="14" rx="7" fill="#C4B4A5"/>
  <rect x="94" y="478" width="692" height="16" rx="8" fill="#E5DACE"/>
  <rect x="94" y="506" width="692" height="16" rx="8" fill="#E5DACE"/>
  <rect x="94" y="534" width="692" height="16" rx="8" fill="#E5DACE"/>

  <rect x="94" y="574" width="178" height="38" rx="12" fill="#4B4038"/>
  <rect x="292" y="574" width="178" height="38" rx="12" fill="#E4D8CB"/>
</svg>
