<svg xmlns="http://www.w3.org/2000/svg" viewBox="0 0 1200 720" role="img" aria-labelledby="title desc">
  <title id="title">Helpertje Service Site preview</title>
  <desc id="desc">Stylized preview of a friendly appliance repair service website.</desc>
  <defs>
    <linearGradient id="bg" x1="0" y1="0" x2="1" y2="1"><stop stop-color="#e9f8f4"/><stop offset="1" stop-color="#b9e9dc"/></linearGradient>
    <linearGradient id="green" x1="0" y1="0" x2="1" y2="1"><stop stop-color="#16846f"/><stop offset="1" stop-color="#25aa8e"/></linearGradient>
  </defs>
  <rect width="1200" height="720" rx="28" fill="url(#bg)"/>
  <rect x="54" y="46" width="1092" height="628" rx="22" fill="#fff"/>
  <rect x="54" y="46" width="1092" height="76" rx="22" fill="#f7fcfa"/>
  <circle cx="90" cy="84" r="8" fill="#ff746c"/><circle cx="116" cy="84" r="8" fill="#ffc45c"/><circle cx="142" cy="84" r="8" fill="#55c88f"/>
  <circle cx="204" cy="84" r="22" fill="#16846f"/><path d="M194 84h20M204 74v20" stroke="#fff" stroke-width="5" stroke-linecap="round"/>
  <text x="240" y="93" font-family="Arial, sans-serif" font-size="28" font-weight="800" fill="#176d5f">Helpertje</text>
  <g fill="#aacac2"><rect x="810" y="72" width="76" height="18" rx="9"/><rect x="910" y="72" width="76" height="18" rx="9"/><rect x="1010" y="64" width="98" height="34" rx="17"/></g>
  <rect x="78" y="146" width="1044" height="294" rx="18" fill="#eef9f6"/>
  <text x="122" y="226" font-family="Arial, sans-serif" font-size="22" font-weight="700" fill="#16846f">SNELLE HULP AAN HUIS</text>
  <text x="122" y="286" font-family="Arial, sans-serif" font-size="48" font-weight="800" fill="#203b35">Witgoed reparatie</text>
  <text x="122" y="338" font-family="Arial, sans-serif" font-size="48" font-weight="800" fill="#203b35">zonder zorgen.</text>
  <rect x="122" y="372" width="178" height="42" rx="21" fill="url(#green)"/>
  <rect x="748" y="182" width="282" height="218" rx="30" fill="#fff" stroke="#b9e9dc" stroke-width="10"/>
  <circle cx="889" cy="292" r="76" fill="#d7f2eb" stroke="#16846f" stroke-width="12"/><circle cx="889" cy="292" r="38" fill="#fff" stroke="#8dcfc0" stroke-width="8"/>
  <circle cx="790" cy="220" r="8" fill="#16846f"/><circle cx="820" cy="220" r="8" fill="#f1b84b"/>
  <g fill="#eef9f6"><rect x="78" y="468" width="320" height="162" rx="18"/><rect x="440" y="468" width="320" height="162" rx="18"/><rect x="802" y="468" width="320" height="162" rx="18"/></g>
  <g fill="#16846f"><circle cx="126" cy="518" r="21"/><circle cx="488" cy="518" r="21"/><circle cx="850" cy="518" r="21"/></g>
  <g fill="#81a89f"><rect x="112" y="560" width="218" height="14" rx="7"/><rect x="112" y="590" width="246" height="10" rx="5"/><rect x="474" y="560" width="218" height="14" rx="7"/><rect x="474" y="590" width="246" height="10" rx="5"/><rect x="836" y="560" width="218" height="14" rx="7"/><rect x="836" y="590" width="246" height="10" rx="5"/></g>
</svg>
