<svg width="1200" height="760" viewBox="0 0 1200 760" fill="none" xmlns="http://www.w3.org/2000/svg">
  <defs>
    <linearGradient id="bg" x1="0" y1="0" x2="1200" y2="760" gradientUnits="userSpaceOnUse">
      <stop stop-color="#F5F9FF"/>
      <stop offset="1" stop-color="#E8F0FF"/>
    </linearGradient>
  </defs>
  <rect width="1200" height="760" rx="28" fill="url(#bg)"/>
  <rect x="40" y="40" width="1120" height="680" rx="24" fill="#FFFFFF" stroke="#D8E5FF"/>
  <rect x="76" y="84" width="480" height="286" rx="18" fill="#F8FBFF" stroke="#DEEAFF"/>
  <rect x="588" y="84" width="536" height="286" rx="18" fill="#F8FBFF" stroke="#DEEAFF"/>
  <rect x="76" y="398" width="694" height="286" rx="18" fill="#F8FBFF" stroke="#DEEAFF"/>
  <rect x="798" y="398" width="326" height="286" rx="18" fill="#F8FBFF" stroke="#DEEAFF"/>
  <rect x="106" y="126" width="130" height="12" rx="6" fill="#8BAFFF" opacity="0.62"/>
  <rect x="106" y="156" width="84" height="10" rx="5" fill="#A9C2FF" opacity="0.65"/>
  <path d="M112 322L190 250L254 282L322 208L392 234L458 170" stroke="#2563EB" stroke-width="10" stroke-linecap="round" stroke-linejoin="round"/>
  <circle cx="190" cy="250" r="9" fill="#2563EB"/>
  <circle cx="322" cy="208" r="9" fill="#2563EB"/>
  <circle cx="458" cy="170" r="9" fill="#2563EB"/>
  <rect x="622" y="126" width="140" height="12" rx="6" fill="#8BAFFF" opacity="0.62"/>
  <rect x="622" y="156" width="104" height="10" rx="5" fill="#A9C2FF" opacity="0.65"/>
  <rect x="622" y="310" width="42" height="28" rx="8" fill="#3B82F6"/>
  <rect x="678" y="286" width="42" height="52" rx="8" fill="#2563EB"/>
  <rect x="734" y="262" width="42" height="76" rx="8" fill="#1D4ED8"/>
  <rect x="790" y="236" width="42" height="102" rx="8" fill="#2563EB"/>
  <rect x="846" y="210" width="42" height="128" rx="8" fill="#1E40AF"/>
  <rect x="902" y="252" width="42" height="86" rx="8" fill="#2563EB"/>
  <rect x="958" y="224" width="42" height="114" rx="8" fill="#1D4ED8"/>
  <rect x="828" y="440" width="262" height="14" rx="7" fill="#8BAFFF" opacity="0.62"/>
  <rect x="828" y="472" width="220" height="10" rx="5" fill="#A9C2FF" opacity="0.65"/>
  <circle cx="958" cy="580" r="98" fill="#E4EDFF"/>
  <path d="M958 580L958 492" stroke="#2563EB" stroke-width="16" stroke-linecap="round"/>
  <path d="M958 580L1032 614" stroke="#1D4ED8" stroke-width="16" stroke-linecap="round"/>
  <path d="M958 580L896 650" stroke="#3B82F6" stroke-width="16" stroke-linecap="round"/>
  <rect x="106" y="438" width="628" height="14" rx="7" fill="#8BAFFF" opacity="0.62"/>
  <rect x="106" y="470" width="582" height="10" rx="5" fill="#A9C2FF" opacity="0.65"/>
  <rect x="106" y="514" width="96" height="132" rx="12" fill="#D9E7FF"/>
  <rect x="216" y="546" width="96" height="100" rx="12" fill="#C4D9FF"/>
  <rect x="326" y="522" width="96" height="124" rx="12" fill="#9EBEFF"/>
  <rect x="436" y="488" width="96" height="158" rx="12" fill="#729FF7"/>
  <rect x="546" y="532" width="96" height="114" rx="12" fill="#9EBEFF"/>
  <rect x="656" y="506" width="62" height="140" rx="12" fill="#5A8AF5"/>
</svg>
