<svg width="1200" height="760" viewBox="0 0 1200 760" fill="none" xmlns="http://www.w3.org/2000/svg">
  <defs>
    <linearGradient id="bg" x1="0" y1="0" x2="1200" y2="760" gradientUnits="userSpaceOnUse">
      <stop stop-color="#F6F9FF"/>
      <stop offset="1" stop-color="#E8F0FF"/>
    </linearGradient>
  </defs>
  <rect width="1200" height="760" rx="28" fill="url(#bg)"/>
  <rect x="70" y="90" width="520" height="580" rx="24" fill="#FFFFFF" stroke="#D8E5FF"/>
  <rect x="610" y="90" width="520" height="580" rx="24" fill="#FFFFFF" stroke="#D8E5FF"/>

  <rect x="232" y="140" width="194" height="472" rx="36" fill="#0F172A"/>
  <rect x="244" y="160" width="170" height="432" rx="26" fill="#F5F9FF"/>
  <rect x="280" y="176" width="98" height="8" rx="4" fill="#1E293B" opacity="0.4"/>
  <rect x="260" y="210" width="138" height="24" rx="12" fill="#2563EB"/>
  <rect x="260" y="248" width="138" height="10" rx="5" fill="#8BAFFF" opacity="0.6"/>
  <rect x="260" y="278" width="138" height="78" rx="12" fill="#FFFFFF" stroke="#DCE7FF"/>
  <rect x="276" y="296" width="102" height="8" rx="4" fill="#A3BFFF"/>
  <rect x="276" y="314" width="90" height="8" rx="4" fill="#C7DAFF"/>
  <rect x="260" y="368" width="138" height="78" rx="12" fill="#FFFFFF" stroke="#DCE7FF"/>
  <rect x="260" y="458" width="138" height="78" rx="12" fill="#1D4ED8"/>
  <rect x="288" y="492" width="82" height="10" rx="5" fill="#FFFFFF" opacity="0.9"/>

  <rect x="772" y="140" width="194" height="472" rx="36" fill="#0F172A"/>
  <rect x="784" y="160" width="170" height="432" rx="26" fill="#F5F9FF"/>
  <rect x="820" y="176" width="98" height="8" rx="4" fill="#1E293B" opacity="0.4"/>
  <rect x="800" y="210" width="138" height="24" rx="12" fill="#2563EB"/>
  <rect x="800" y="248" width="138" height="10" rx="5" fill="#8BAFFF" opacity="0.6"/>
  <rect x="800" y="278" width="138" height="46" rx="12" fill="#FFFFFF" stroke="#DCE7FF"/>
  <rect x="800" y="336" width="138" height="46" rx="12" fill="#FFFFFF" stroke="#DCE7FF"/>
  <rect x="800" y="394" width="138" height="46" rx="12" fill="#FFFFFF" stroke="#DCE7FF"/>
  <rect x="800" y="452" width="138" height="84" rx="12" fill="#E7EFFF"/>
  <rect x="820" y="484" width="98" height="10" rx="5" fill="#7EA5FF" opacity="0.65"/>

  <rect x="130" y="620" width="400" height="20" rx="10" fill="#A3BFFF" opacity="0.4"/>
  <rect x="670" y="620" width="400" height="20" rx="10" fill="#A3BFFF" opacity="0.4"/>
</svg>
