<svg width="1200" height="760" viewBox="0 0 1200 760" fill="none" xmlns="http://www.w3.org/2000/svg">
  <defs>
    <linearGradient id="bg" x1="0" y1="0" x2="1200" y2="760" gradientUnits="userSpaceOnUse">
      <stop stop-color="#F8F5F1"/>
      <stop offset="1" stop-color="#EDE6DE"/>
    </linearGradient>
    <linearGradient id="card" x1="0" y1="0" x2="1" y2="1">
      <stop stop-color="#FFFEFC"/>
      <stop offset="1" stop-color="#EEE5DC"/>
    </linearGradient>
  </defs>
  <rect width="1200" height="760" rx="28" fill="url(#bg)"/>
  <rect x="34" y="34" width="1132" height="692" rx="22" fill="#FFFEFC" stroke="#D1C5B9"/>
  <rect x="58" y="58" width="220" height="644" rx="16" fill="#E6DED5"/>
  <rect x="302" y="58" width="840" height="76" rx="16" fill="#F1EBE3" stroke="#D7CABD"/>
  <rect x="80" y="104" width="142" height="14" rx="7" fill="#6A5B4E" opacity="0.38"/>
  <rect x="80" y="145" width="120" height="12" rx="6" fill="#C7B8A9" opacity="0.55"/>
  <rect x="80" y="176" width="94" height="12" rx="6" fill="#C7B8A9" opacity="0.55"/>
  <rect x="80" y="207" width="130" height="12" rx="6" fill="#C7B8A9" opacity="0.55"/>
  <rect x="324" y="168" width="192" height="130" rx="14" fill="url(#card)" stroke="#D7CABD"/>
  <rect x="534" y="168" width="192" height="130" rx="14" fill="url(#card)" stroke="#D7CABD"/>
  <rect x="744" y="168" width="192" height="130" rx="14" fill="url(#card)" stroke="#D7CABD"/>
  <rect x="954" y="168" width="166" height="130" rx="14" fill="url(#card)" stroke="#D7CABD"/>
  <rect x="344" y="196" width="74" height="10" rx="5" fill="#C4B4A5" opacity="0.58"/>
  <rect x="344" y="222" width="104" height="34" rx="10" fill="#4C433B" opacity="0.92"/>
  <rect x="554" y="196" width="74" height="10" rx="5" fill="#C4B4A5" opacity="0.58"/>
  <rect x="554" y="222" width="120" height="34" rx="10" fill="#5A4E43" opacity="0.92"/>
  <rect x="764" y="196" width="74" height="10" rx="5" fill="#C4B4A5" opacity="0.58"/>
  <rect x="764" y="222" width="94" height="34" rx="10" fill="#6A5C50" opacity="0.9"/>
  <rect x="974" y="196" width="74" height="10" rx="5" fill="#C4B4A5" opacity="0.58"/>
  <rect x="974" y="222" width="96" height="34" rx="10" fill="#7A6D60" opacity="0.88"/>
  <rect x="324" y="324" width="530" height="350" rx="16" fill="url(#card)" stroke="#D7CABD"/>
  <rect x="872" y="324" width="248" height="350" rx="16" fill="url(#card)" stroke="#D7CABD"/>
  <rect x="344" y="356" width="490" height="14" rx="7" fill="#C4B4A5" opacity="0.5"/>
  <rect x="344" y="388" width="420" height="12" rx="6" fill="#D8CCC0" opacity="0.62"/>
  <rect x="344" y="432" width="58" height="182" rx="10" fill="#E8DDD2"/>
  <rect x="414" y="470" width="58" height="144" rx="10" fill="#E0D3C6"/>
  <rect x="484" y="446" width="58" height="168" rx="10" fill="#D7C8BA"/>
  <rect x="554" y="410" width="58" height="204" rx="10" fill="#CDBBAA"/>
  <rect x="624" y="382" width="58" height="232" rx="10" fill="#B7A28F"/>
  <rect x="694" y="430" width="58" height="184" rx="10" fill="#D7C8BA"/>
  <rect x="764" y="462" width="58" height="152" rx="10" fill="#E0D3C6"/>
  <rect x="892" y="356" width="208" height="14" rx="7" fill="#C4B4A5" opacity="0.5"/>
  <rect x="892" y="390" width="184" height="12" rx="6" fill="#D8CCC0" opacity="0.62"/>
  <rect x="892" y="430" width="206" height="70" rx="12" fill="#ECE2D8" stroke="#D7CABD"/>
  <rect x="892" y="516" width="206" height="70" rx="12" fill="#ECE2D8" stroke="#D7CABD"/>
  <rect x="892" y="602" width="206" height="54" rx="12" fill="#ECE2D8" stroke="#D7CABD"/>
</svg>
