<svg width="1200" height="760" viewBox="0 0 1200 760" fill="none" xmlns="http://www.w3.org/2000/svg">
  <defs>
    <linearGradient id="bg" x1="0" y1="0" x2="1200" y2="760" gradientUnits="userSpaceOnUse">
      <stop stop-color="#EAF1FF"/>
      <stop offset="1" stop-color="#DCE7FF"/>
    </linearGradient>
  </defs>
  <rect width="1200" height="760" rx="28" fill="url(#bg)"/>
  <circle cx="198" cy="120" r="130" fill="#FFFFFF" opacity="0.32"/>
  <circle cx="1030" cy="660" r="160" fill="#FFFFFF" opacity="0.24"/>
  <rect x="346" y="88" width="508" height="584" rx="28" fill="#FFFFFF" stroke="#D3E1FF"/>
  <rect x="386" y="132" width="124" height="124" rx="24" fill="#2563EB"/>
  <path d="M428 196L448 216L488 176" stroke="#FFFFFF" stroke-width="12" stroke-linecap="round" stroke-linejoin="round"/>
  <rect x="534" y="152" width="278" height="20" rx="10" fill="#7EA5FF" opacity="0.42"/>
  <rect x="534" y="184" width="212" height="14" rx="7" fill="#A4C0FF" opacity="0.6"/>
  <rect x="386" y="290" width="428" height="66" rx="14" fill="#F6F9FF" stroke="#DCE7FF"/>
  <rect x="410" y="315" width="120" height="14" rx="7" fill="#9AB9FF" opacity="0.65"/>
  <rect x="386" y="378" width="428" height="66" rx="14" fill="#F6F9FF" stroke="#DCE7FF"/>
  <rect x="410" y="403" width="134" height="14" rx="7" fill="#9AB9FF" opacity="0.65"/>
  <rect x="386" y="472" width="428" height="58" rx="14" fill="#2563EB"/>
  <rect x="548" y="495" width="106" height="12" rx="6" fill="#FFFFFF" opacity="0.86"/>
  <rect x="386" y="548" width="204" height="14" rx="7" fill="#9AB9FF" opacity="0.56"/>
  <rect x="610" y="548" width="204" height="14" rx="7" fill="#9AB9FF" opacity="0.56"/>
</svg>
