<svg width="1200" height="760" viewBox="0 0 1200 760" fill="none" xmlns="http://www.w3.org/2000/svg">
  <defs>
    <linearGradient id="bg" x1="0" y1="0" x2="1200" y2="760" gradientUnits="userSpaceOnUse">
      <stop stop-color="#EEF4FF"/>
      <stop offset="1" stop-color="#F9FBFF"/>
    </linearGradient>
  </defs>
  <rect width="1200" height="760" rx="28" fill="url(#bg)"/>
  <rect x="44" y="44" width="1112" height="672" rx="24" fill="#FFFFFF" stroke="#D8E5FF"/>
  <rect x="88" y="88" width="1024" height="72" rx="16" fill="#F5F9FF" stroke="#E0EAFF"/>
  <rect x="112" y="116" width="168" height="14" rx="7" fill="#7EA5FF" opacity="0.5"/>
  <rect x="912" y="108" width="176" height="30" rx="15" fill="#2563EB"/>
  <rect x="104" y="196" width="792" height="488" rx="18" fill="#FBFDFF" stroke="#DEEAFF"/>
  <rect x="924" y="196" width="188" height="488" rx="18" fill="#F7FAFF" stroke="#DEEAFF"/>
  <rect x="140" y="238" width="670" height="18" rx="9" fill="#7EA5FF" opacity="0.45"/>
  <rect x="140" y="268" width="522" height="12" rx="6" fill="#A2BEFF" opacity="0.55"/>
  <rect x="140" y="316" width="720" height="72" rx="14" fill="#FFFFFF" stroke="#DCE7FF"/>
  <rect x="140" y="404" width="720" height="72" rx="14" fill="#FFFFFF" stroke="#DCE7FF"/>
  <rect x="140" y="492" width="720" height="72" rx="14" fill="#FFFFFF" stroke="#DCE7FF"/>
  <rect x="140" y="580" width="720" height="72" rx="14" fill="#2563EB"/>
  <circle cx="188" cy="352" r="14" fill="#DBE7FF"/>
  <circle cx="188" cy="440" r="14" fill="#DBE7FF"/>
  <circle cx="188" cy="528" r="14" fill="#DBE7FF"/>
  <circle cx="188" cy="616" r="14" fill="#FFFFFF" opacity="0.9"/>
  <rect x="216" y="344" width="420" height="16" rx="8" fill="#8EAFFF" opacity="0.58"/>
  <rect x="216" y="432" width="386" height="16" rx="8" fill="#8EAFFF" opacity="0.58"/>
  <rect x="216" y="520" width="452" height="16" rx="8" fill="#8EAFFF" opacity="0.58"/>
  <rect x="216" y="608" width="288" height="16" rx="8" fill="#FFFFFF" opacity="0.9"/>
  <rect x="956" y="238" width="124" height="12" rx="6" fill="#7EA5FF" opacity="0.45"/>
  <rect x="956" y="266" width="96" height="10" rx="5" fill="#A2BEFF" opacity="0.55"/>
  <rect x="956" y="304" width="124" height="44" rx="10" fill="#EAF1FF"/>
  <rect x="956" y="360" width="124" height="44" rx="10" fill="#EAF1FF"/>
  <rect x="956" y="416" width="124" height="44" rx="10" fill="#EAF1FF"/>
  <rect x="956" y="472" width="124" height="44" rx="10" fill="#EAF1FF"/>
  <rect x="956" y="528" width="124" height="44" rx="10" fill="#EAF1FF"/>
  <rect x="956" y="588" width="124" height="64" rx="12" fill="#1D4ED8"/>
</svg>
